<svg xmlns="http://www.w3.org/2000/svg" xmlns:xlink="http://www.w3.org/1999/xlink" width="160" zoomAndPan="magnify" viewBox="0 0 120 48" height="64" preserveAspectRatio="xMidYMid meet" version="1.0"><defs><g/><clipPath id="9553210044"><path d="M 4.636719 12.21875 L 27.222656 12.21875 L 27.222656 34.804688 L 4.636719 34.804688 Z M 4.636719 12.21875 " clip-rule="nonzero"/></clipPath><clipPath id="6b50f87c01"><path d="M 6.800781 12.21875 L 25.058594 12.21875 C 26.253906 12.21875 27.222656 13.183594 27.222656 14.378906 L 27.222656 32.640625 C 27.222656 33.835938 26.253906 34.804688 25.058594 34.804688 L 6.800781 34.804688 C 5.605469 34.804688 4.636719 33.835938 4.636719 32.640625 L 4.636719 14.378906 C 4.636719 13.183594 5.605469 12.21875 6.800781 12.21875 Z M 6.800781 12.21875 " clip-rule="nonzero"/></clipPath><clipPath id="5c64f35c3b"><path d="M 0.636719 0.21875 L 23.222656 0.21875 L 23.222656 22.804688 L 0.636719 22.804688 Z M 0.636719 0.21875 " clip-rule="nonzero"/></clipPath><clipPath id="12b8f37484"><path d="M 2.800781 0.21875 L 21.058594 0.21875 C 22.253906 0.21875 23.222656 1.183594 23.222656 2.378906 L 23.222656 20.640625 C 23.222656 21.835938 22.253906 22.804688 21.058594 22.804688 L 2.800781 22.804688 C 1.605469 22.804688 0.636719 21.835938 0.636719 20.640625 L 0.636719 2.378906 C 0.636719 1.183594 1.605469 0.21875 2.800781 0.21875 Z M 2.800781 0.21875 " clip-rule="nonzero"/></clipPath><clipPath id="45a72b7591"><rect x="0" width="24" y="0" height="23"/></clipPath><clipPath id="82e3043798"><path d="M 8 15.496094 L 23.832031 15.496094 L 23.832031 31.660156 L 8 31.660156 Z M 8 15.496094 " clip-rule="nonzero"/></clipPath><clipPath id="793b010108"><path d="M 14.671875 22.253906 L 16.875 22.253906 L 16.875 24.457031 L 14.671875 24.457031 Z M 14.671875 22.253906 " clip-rule="nonzero"/></clipPath><clipPath id="6ed2975106"><rect x="0" width="88" y="0" height="24"/></clipPath><clipPath id="9b432fb8e4"><path d="M 8 2 L 10.484375 2 L 10.484375 6 L 8 6 Z M 8 2 " clip-rule="nonzero"/></clipPath><clipPath id="f27e955dc6"><rect x="0" width="11" y="0" height="7"/></clipPath></defs><g clip-path="url(#9553210044)"><g clip-path="url(#6b50f87c01)"><g transform="matrix(1, 0, 0, 1, 4, 12)"><g clip-path="url(#45a72b7591)"><g clip-path="url(#5c64f35c3b)"><g clip-path="url(#12b8f37484)"><path fill="#000000" d="M 0.636719 0.21875 L 23.222656 0.21875 L 23.222656 22.804688 L 0.636719 22.804688 Z M 0.636719 0.21875 " fill-opacity="1" fill-rule="nonzero"/></g></g></g></g></g></g><g clip-path="url(#82e3043798)"><path fill="#ffffff" d="M 13.824219 20.273438 C 14.464844 20.742188 15.089844 20.480469 15.210938 19.699219 L 15.734375 16.296875 C 15.855469 15.515625 16.050781 15.515625 16.171875 16.296875 L 16.695312 19.699219 C 16.816406 20.480469 17.4375 20.742188 18.082031 20.273438 L 21.039062 18.125 C 21.679688 17.65625 21.820312 17.800781 21.355469 18.445312 L 19.203125 21.398438 C 18.738281 22.042969 18.996094 22.664062 19.78125 22.785156 L 23.183594 23.308594 C 23.964844 23.429688 23.964844 23.625 23.183594 23.746094 L 19.78125 24.269531 C 18.996094 24.390625 18.738281 25.015625 19.203125 25.65625 L 21.355469 28.613281 C 21.820312 29.253906 21.679688 29.398438 21.039062 28.929688 L 18.082031 26.78125 C 17.4375 26.3125 16.816406 26.574219 16.695312 27.359375 L 16.171875 30.757812 C 16.050781 31.542969 15.855469 31.542969 15.734375 30.757812 L 15.210938 27.359375 C 15.089844 26.574219 14.464844 26.3125 13.824219 26.78125 L 10.867188 28.929688 C 10.226562 29.398438 10.105469 29.273438 10.605469 28.65625 L 13.050781 25.613281 C 13.546875 24.996094 13.3125 24.402344 12.523438 24.292969 L 8.652344 23.757812 C 7.863281 23.648438 7.863281 23.460938 8.648438 23.335938 L 12.121094 22.789062 C 12.90625 22.667969 13.167969 22.042969 12.699219 21.398438 L 10.550781 18.445312 C 10.082031 17.800781 10.226562 17.660156 10.867188 18.125 Z M 13.824219 20.273438 " fill-opacity="1" fill-rule="nonzero"/></g><g clip-path="url(#793b010108)"><path fill="#ff3131" d="M 17.183594 23.507812 C 17.183594 23.675781 17.152344 23.835938 17.089844 23.992188 C 17.027344 24.144531 16.933594 24.28125 16.816406 24.398438 C 16.699219 24.515625 16.5625 24.605469 16.410156 24.671875 C 16.253906 24.734375 16.09375 24.765625 15.929688 24.765625 C 15.761719 24.765625 15.601562 24.734375 15.449219 24.671875 C 15.292969 24.605469 15.15625 24.515625 15.039062 24.398438 C 14.921875 24.28125 14.832031 24.144531 14.765625 23.992188 C 14.703125 23.835938 14.671875 23.675781 14.671875 23.507812 C 14.671875 23.34375 14.703125 23.183594 14.765625 23.027344 C 14.832031 22.875 14.921875 22.738281 15.039062 22.621094 C 15.15625 22.503906 15.292969 22.410156 15.449219 22.347656 C 15.601562 22.285156 15.761719 22.253906 15.929688 22.253906 C 16.09375 22.253906 16.253906 22.285156 16.410156 22.347656 C 16.5625 22.410156 16.699219 22.503906 16.816406 22.621094 C 16.933594 22.738281 17.027344 22.875 17.089844 23.027344 C 17.152344 23.183594 17.183594 23.34375 17.183594 23.507812 Z M 17.183594 23.507812 " fill-opacity="1" fill-rule="nonzero"/></g><g transform="matrix(1, 0, 0, 1, 28, 11)"><g clip-path="url(#6ed2975106)"><g fill="#000000" fill-opacity="1"><g transform="translate(0.564743, 17.176194)"><g><path d="M 5.34375 -1.921875 C 6.101562 -1.921875 6.625 -2.117188 6.90625 -2.515625 L 6.96875 -2.515625 L 7 -0.484375 C 6.707031 -0.191406 6.175781 0 5.40625 0.09375 C 5.195312 0.113281 4.9375 0.125 4.625 0.125 C 4.3125 0.125 3.972656 0.0664062 3.609375 -0.046875 C 3.242188 -0.160156 2.929688 -0.347656 2.671875 -0.609375 C 2.140625 -1.148438 1.875 -2 1.875 -3.15625 L 1.875 -7.140625 L 0.546875 -7.140625 C 0.546875 -7.304688 0.546875 -7.476562 0.546875 -7.65625 L 0.546875 -9 C 0.546875 -9.101562 0.546875 -9.15625 0.546875 -9.15625 L 1.875 -9.15625 L 1.875 -11.65625 L 4.015625 -11.65625 L 4.015625 -9.15625 L 6.421875 -9.15625 L 6.421875 -7.140625 L 4.015625 -7.140625 L 4.015625 -3.5625 C 4.015625 -2.644531 4.269531 -2.125 4.78125 -2 C 4.945312 -1.945312 5.132812 -1.921875 5.34375 -1.921875 Z M 5.34375 -1.921875 "/></g></g></g><g fill="#000000" fill-opacity="1"><g transform="translate(8.056008, 17.176194)"><g><path d="M 3.359375 -0.984375 C 3.359375 -0.484375 3.367188 -0.15625 3.390625 0 L 1.203125 0 L 1.203125 -9.15625 L 3.359375 -9.15625 L 3.359375 -8.484375 C 3.847656 -9.046875 4.363281 -9.328125 4.90625 -9.328125 C 5.457031 -9.328125 5.890625 -9.257812 6.203125 -9.125 L 6.046875 -6.765625 L 6.015625 -6.75 C 5.804688 -7.101562 5.382812 -7.28125 4.75 -7.28125 C 4.5 -7.28125 4.25 -7.195312 4 -7.03125 C 3.75 -6.863281 3.535156 -6.644531 3.359375 -6.375 Z M 3.359375 -0.984375 "/></g></g></g><g fill="#000000" fill-opacity="1"><g transform="translate(14.049019, 17.176194)"><g><path d="M 7.328125 -0.546875 C 6.503906 -0.0976562 5.753906 0.125 5.078125 0.125 C 4.410156 0.125 3.835938 0.0625 3.359375 -0.0625 C 2.878906 -0.1875 2.472656 -0.367188 2.140625 -0.609375 C 1.460938 -1.109375 1.125 -1.828125 1.125 -2.765625 C 1.125 -3.609375 1.535156 -4.3125 2.359375 -4.875 C 3.265625 -5.476562 4.488281 -5.78125 6.03125 -5.78125 L 6.375 -5.765625 C 6.445312 -5.765625 6.523438 -5.757812 6.609375 -5.75 C 6.703125 -5.75 6.78125 -5.742188 6.84375 -5.734375 C 6.800781 -6.671875 6.398438 -7.21875 5.640625 -7.375 C 5.390625 -7.425781 5.125 -7.453125 4.84375 -7.453125 C 4.5625 -7.453125 4.28125 -7.425781 4 -7.375 C 3.726562 -7.320312 3.46875 -7.257812 3.21875 -7.1875 C 2.644531 -7 2.238281 -6.789062 2 -6.5625 L 1.96875 -6.578125 L 1.703125 -8.515625 C 2.742188 -9.054688 3.875 -9.328125 5.09375 -9.328125 C 7 -9.328125 8.21875 -8.640625 8.75 -7.265625 C 8.914062 -6.828125 9 -6.335938 9 -5.796875 L 9 -2.625 C 9 -1.945312 9.238281 -1.484375 9.71875 -1.234375 L 8.140625 0.21875 C 7.804688 0.0390625 7.535156 -0.210938 7.328125 -0.546875 Z M 6.859375 -4.15625 C 6.703125 -4.1875 6.539062 -4.203125 6.375 -4.203125 L 6.015625 -4.203125 C 4.722656 -4.203125 3.90625 -3.914062 3.5625 -3.34375 C 3.445312 -3.175781 3.390625 -3 3.390625 -2.8125 C 3.390625 -2.625 3.421875 -2.457031 3.484375 -2.3125 C 3.554688 -2.175781 3.675781 -2.0625 3.84375 -1.96875 C 4.144531 -1.789062 4.59375 -1.703125 5.1875 -1.703125 C 5.789062 -1.703125 6.347656 -1.84375 6.859375 -2.125 C 6.859375 -2.1875 6.859375 -2.253906 6.859375 -2.328125 Z M 6.859375 -4.15625 "/></g></g></g><g fill="#000000" fill-opacity="1"><g transform="translate(24.501743, 17.176194)"><g><path d="M 8.4375 -0.84375 C 7.789062 -0.195312 6.769531 0.125 5.375 0.125 C 4.019531 0.125 2.910156 -0.285156 2.046875 -1.109375 C 1.179688 -1.941406 0.75 -3.050781 0.75 -4.4375 C 0.75 -5.84375 1.175781 -7 2.03125 -7.90625 C 2.9375 -8.851562 4.15625 -9.328125 5.6875 -9.328125 C 6.757812 -9.328125 7.664062 -9.09375 8.40625 -8.625 L 8.046875 -6.375 L 7.984375 -6.390625 C 7.703125 -6.722656 7.410156 -6.941406 7.109375 -7.046875 C 6.597656 -7.222656 6.09375 -7.3125 5.59375 -7.3125 C 5.09375 -7.3125 4.695312 -7.242188 4.40625 -7.109375 C 4.125 -6.984375 3.878906 -6.8125 3.671875 -6.59375 C 3.265625 -6.125 3.0625 -5.503906 3.0625 -4.734375 C 3.0625 -3.367188 3.535156 -2.472656 4.484375 -2.046875 C 4.804688 -1.910156 5.148438 -1.84375 5.515625 -1.84375 C 5.878906 -1.84375 6.195312 -1.875 6.46875 -1.9375 C 6.75 -2 7 -2.085938 7.21875 -2.203125 C 7.6875 -2.429688 8.007812 -2.703125 8.1875 -3.015625 L 8.234375 -2.984375 Z M 8.4375 -0.84375 "/></g></g></g><g fill="#000000" fill-opacity="1"><g transform="translate(33.49126, 17.176194)"><g><path d="M 3.5625 -1.15625 C 3.5625 -0.65625 3.582031 -0.269531 3.625 0 L 1.421875 0 L 1.421875 -12.53125 L 3.5625 -12.53125 L 3.5625 -4.859375 L 7.5625 -9.15625 L 10.171875 -9.15625 L 6.71875 -5.515625 L 8.6875 -2.828125 C 9.113281 -2.148438 9.4375 -1.65625 9.65625 -1.34375 L 10.234375 -0.53125 C 10.410156 -0.300781 10.554688 -0.125 10.671875 0 L 9.28125 0 C 8.769531 0 8.332031 0.0390625 7.96875 0.125 L 5.234375 -3.859375 L 3.5625 -2.09375 Z M 3.5625 -1.15625 "/></g></g></g><g fill="#000000" fill-opacity="1"><g transform="translate(43.943983, 17.176194)"><g><path d="M 3.5625 -0.1875 L 3.5625 2.390625 C 3.5625 2.890625 3.570312 3.21875 3.59375 3.375 L 1.421875 3.375 L 1.421875 -9.15625 L 3.5625 -9.15625 L 3.5625 -8.578125 C 4.269531 -9.078125 4.945312 -9.328125 5.59375 -9.328125 C 6.238281 -9.328125 6.8125 -9.234375 7.3125 -9.046875 C 7.820312 -8.867188 8.265625 -8.59375 8.640625 -8.21875 C 9.472656 -7.394531 9.890625 -6.21875 9.890625 -4.6875 C 9.890625 -3.675781 9.65625 -2.773438 9.1875 -1.984375 C 8.78125 -1.316406 8.222656 -0.78125 7.515625 -0.375 C 6.878906 -0.0195312 6.191406 0.15625 5.453125 0.15625 C 4.722656 0.15625 4.09375 0.0390625 3.5625 -0.1875 Z M 3.5625 -2.390625 C 4.007812 -2.015625 4.585938 -1.828125 5.296875 -1.828125 C 6.453125 -1.828125 7.195312 -2.382812 7.53125 -3.5 C 7.644531 -3.882812 7.703125 -4.289062 7.703125 -4.71875 C 7.703125 -5.15625 7.660156 -5.503906 7.578125 -5.765625 C 7.503906 -6.023438 7.398438 -6.25 7.265625 -6.4375 C 7.128906 -6.632812 6.976562 -6.796875 6.8125 -6.921875 C 6.65625 -7.046875 6.492188 -7.144531 6.328125 -7.21875 C 6.023438 -7.351562 5.71875 -7.421875 5.40625 -7.421875 C 5.09375 -7.421875 4.765625 -7.347656 4.421875 -7.203125 C 4.085938 -7.054688 3.800781 -6.859375 3.5625 -6.609375 Z M 3.5625 -2.390625 "/></g></g></g><g fill="#000000" fill-opacity="1"><g transform="translate(54.396707, 17.176194)"><g><path d="M 0.625 -4.53125 C 0.625 -5.164062 0.734375 -5.773438 0.953125 -6.359375 C 1.171875 -6.953125 1.484375 -7.46875 1.890625 -7.90625 C 2.785156 -8.851562 3.945312 -9.328125 5.375 -9.328125 C 6.789062 -9.328125 7.914062 -8.878906 8.75 -7.984375 C 9.550781 -7.128906 9.953125 -6.023438 9.953125 -4.671875 C 9.953125 -3.304688 9.539062 -2.175781 8.71875 -1.28125 C 7.84375 -0.34375 6.6875 0.125 5.25 0.125 C 3.769531 0.125 2.609375 -0.335938 1.765625 -1.265625 C 1.003906 -2.109375 0.625 -3.195312 0.625 -4.53125 Z M 2.75 -4.578125 C 2.75 -4.210938 2.8125 -3.859375 2.9375 -3.515625 C 3.0625 -3.171875 3.234375 -2.875 3.453125 -2.625 C 3.941406 -2.09375 4.582031 -1.828125 5.375 -1.828125 C 6.101562 -1.828125 6.675781 -2.085938 7.09375 -2.609375 C 7.5 -3.109375 7.703125 -3.765625 7.703125 -4.578125 C 7.703125 -5.390625 7.492188 -6.046875 7.078125 -6.546875 C 6.628906 -7.085938 6.015625 -7.359375 5.234375 -7.359375 C 4.429688 -7.359375 3.804688 -7.070312 3.359375 -6.5 C 2.953125 -5.96875 2.75 -5.328125 2.75 -4.578125 Z M 2.75 -4.578125 "/></g></g></g><g fill="#000000" fill-opacity="1"><g transform="translate(64.884477, 17.176194)"><g><path d="M 1 -11.765625 C 1.46875 -12.492188 1.957031 -13.132812 2.46875 -13.6875 L 4.359375 -12.203125 C 4.097656 -11.898438 3.863281 -11.597656 3.65625 -11.296875 C 3.65625 -11.296875 3.429688 -10.976562 2.984375 -10.34375 Z M 3.3125 -0.984375 C 3.3125 -0.484375 3.320312 -0.15625 3.34375 0 L 1.125 0 L 1.125 -9.15625 L 3.3125 -9.15625 Z M 3.3125 -0.984375 "/></g></g></g><g fill="#000000" fill-opacity="1"><g transform="translate(69.379236, 17.176194)"><g><path d="M 3.59375 -1.125 C 3.59375 -0.601562 3.613281 -0.226562 3.65625 0 L 1.46875 0 L 1.46875 -9.15625 L 3.59375 -9.15625 L 3.59375 -8.375 C 4.363281 -9.007812 5.1875 -9.328125 6.0625 -9.328125 C 7.019531 -9.328125 7.785156 -9 8.359375 -8.34375 C 8.929688 -7.695312 9.21875 -6.84375 9.21875 -5.78125 L 9.21875 -2.296875 C 9.21875 -1.304688 9.226562 -0.710938 9.25 -0.515625 C 9.28125 -0.316406 9.320312 -0.1875 9.375 -0.125 C 9.425781 -0.0703125 9.46875 -0.0195312 9.5 0.03125 L 9.484375 0.0625 C 9.015625 0.0195312 8.671875 0 8.453125 0 L 7.84375 0 C 7.65625 0 7.398438 0.0078125 7.078125 0.03125 L 7.078125 -4.75 C 7.078125 -6.457031 6.5625 -7.3125 5.53125 -7.3125 C 4.757812 -7.3125 4.113281 -6.914062 3.59375 -6.125 Z M 3.59375 -1.125 "/></g></g></g><g fill="#000000" fill-opacity="1"><g transform="translate(79.86701, 17.176194)"><g><path d="M 5.34375 -1.921875 C 6.101562 -1.921875 6.625 -2.117188 6.90625 -2.515625 L 6.96875 -2.515625 L 7 -0.484375 C 6.707031 -0.191406 6.175781 0 5.40625 0.09375 C 5.195312 0.113281 4.9375 0.125 4.625 0.125 C 4.3125 0.125 3.972656 0.0664062 3.609375 -0.046875 C 3.242188 -0.160156 2.929688 -0.347656 2.671875 -0.609375 C 2.140625 -1.148438 1.875 -2 1.875 -3.15625 L 1.875 -7.140625 L 0.546875 -7.140625 C 0.546875 -7.304688 0.546875 -7.476562 0.546875 -7.65625 L 0.546875 -9 C 0.546875 -9.101562 0.546875 -9.15625 0.546875 -9.15625 L 1.875 -9.15625 L 1.875 -11.65625 L 4.015625 -11.65625 L 4.015625 -9.15625 L 6.421875 -9.15625 L 6.421875 -7.140625 L 4.015625 -7.140625 L 4.015625 -3.5625 C 4.015625 -2.644531 4.269531 -2.125 4.78125 -2 C 4.945312 -1.945312 5.132812 -1.921875 5.34375 -1.921875 Z M 5.34375 -1.921875 "/></g></g></g></g></g><g transform="matrix(1, 0, 0, 1, 105, 28)"><g clip-path="url(#f27e955dc6)"><g fill="#000000" fill-opacity="1"><g transform="translate(1.058526, 4.571923)"><g><path d="M 0.25 0 C 0.257812 -0.09375 0.265625 -0.175781 0.265625 -0.25 C 0.265625 -0.320312 0.265625 -0.367188 0.265625 -0.390625 C 0.265625 -0.421875 0.265625 -0.445312 0.265625 -0.46875 C 0.265625 -0.5 0.265625 -0.523438 0.265625 -0.546875 L 0.25 -0.59375 L 0.90625 -0.59375 C 0.90625 -0.539062 0.90625 -0.492188 0.90625 -0.453125 L 0.90625 -0.359375 C 0.90625 -0.335938 0.90625 -0.285156 0.90625 -0.203125 C 0.90625 -0.117188 0.90625 -0.0507812 0.90625 0 Z M 0.25 0 "/></g></g></g><g fill="#000000" fill-opacity="1"><g transform="translate(2.218997, 4.571923)"><g><path d="M 1.90625 -0.140625 C 1.6875 -0.0234375 1.488281 0.03125 1.3125 0.03125 C 1.144531 0.03125 1 0.015625 0.875 -0.015625 C 0.75 -0.046875 0.644531 -0.09375 0.5625 -0.15625 C 0.382812 -0.289062 0.296875 -0.476562 0.296875 -0.71875 C 0.296875 -0.9375 0.398438 -1.117188 0.609375 -1.265625 C 0.847656 -1.421875 1.164062 -1.5 1.5625 -1.5 L 1.65625 -1.5 C 1.675781 -1.5 1.695312 -1.5 1.71875 -1.5 C 1.738281 -1.5 1.757812 -1.492188 1.78125 -1.484375 C 1.769531 -1.734375 1.664062 -1.878906 1.46875 -1.921875 C 1.394531 -1.929688 1.320312 -1.9375 1.25 -1.9375 C 1.175781 -1.9375 1.101562 -1.925781 1.03125 -1.90625 C 0.96875 -1.894531 0.898438 -1.878906 0.828125 -1.859375 C 0.679688 -1.816406 0.578125 -1.765625 0.515625 -1.703125 L 0.4375 -2.203125 C 0.707031 -2.347656 1.003906 -2.421875 1.328125 -2.421875 C 1.816406 -2.421875 2.128906 -2.242188 2.265625 -1.890625 C 2.316406 -1.773438 2.34375 -1.644531 2.34375 -1.5 L 2.34375 -0.6875 C 2.34375 -0.507812 2.40625 -0.390625 2.53125 -0.328125 L 2.109375 0.0625 C 2.023438 0.0078125 1.957031 -0.0546875 1.90625 -0.140625 Z M 1.78125 -1.078125 C 1.738281 -1.085938 1.695312 -1.09375 1.65625 -1.09375 L 1.5625 -1.09375 C 1.226562 -1.09375 1.015625 -1.019531 0.921875 -0.875 C 0.890625 -0.820312 0.875 -0.769531 0.875 -0.71875 C 0.875 -0.675781 0.882812 -0.632812 0.90625 -0.59375 C 0.925781 -0.5625 0.957031 -0.535156 1 -0.515625 C 1.070312 -0.460938 1.1875 -0.4375 1.34375 -0.4375 C 1.5 -0.4375 1.644531 -0.472656 1.78125 -0.546875 C 1.78125 -0.566406 1.78125 -0.585938 1.78125 -0.609375 Z M 1.78125 -1.078125 "/></g></g></g><g fill="#000000" fill-opacity="1"><g transform="translate(4.933588, 4.571923)"><g><path d="M 0.921875 -0.046875 L 0.921875 0.625 C 0.921875 0.75 0.925781 0.832031 0.9375 0.875 L 0.375 0.875 L 0.375 -2.375 L 0.921875 -2.375 L 0.921875 -2.234375 C 1.109375 -2.359375 1.285156 -2.421875 1.453125 -2.421875 C 1.617188 -2.421875 1.765625 -2.394531 1.890625 -2.34375 C 2.023438 -2.300781 2.144531 -2.226562 2.25 -2.125 C 2.457031 -1.914062 2.5625 -1.613281 2.5625 -1.21875 C 2.5625 -0.957031 2.503906 -0.722656 2.390625 -0.515625 C 2.285156 -0.335938 2.140625 -0.195312 1.953125 -0.09375 C 1.785156 0 1.601562 0.046875 1.40625 0.046875 C 1.21875 0.046875 1.054688 0.015625 0.921875 -0.046875 Z M 0.921875 -0.625 C 1.035156 -0.519531 1.1875 -0.46875 1.375 -0.46875 C 1.675781 -0.46875 1.867188 -0.613281 1.953125 -0.90625 C 1.984375 -1.007812 2 -1.113281 2 -1.21875 C 2 -1.332031 1.988281 -1.421875 1.96875 -1.484375 C 1.945312 -1.554688 1.914062 -1.617188 1.875 -1.671875 C 1.84375 -1.722656 1.804688 -1.765625 1.765625 -1.796875 C 1.722656 -1.828125 1.679688 -1.851562 1.640625 -1.875 C 1.566406 -1.90625 1.488281 -1.921875 1.40625 -1.921875 C 1.320312 -1.921875 1.234375 -1.898438 1.140625 -1.859375 C 1.054688 -1.828125 0.984375 -1.78125 0.921875 -1.71875 Z M 0.921875 -0.625 "/></g></g></g><g clip-path="url(#9b432fb8e4)"><g fill="#000000" fill-opacity="1"><g transform="translate(7.64818, 4.571923)"><g><path d="M 0.921875 -0.046875 L 0.921875 0.625 C 0.921875 0.75 0.925781 0.832031 0.9375 0.875 L 0.375 0.875 L 0.375 -2.375 L 0.921875 -2.375 L 0.921875 -2.234375 C 1.109375 -2.359375 1.285156 -2.421875 1.453125 -2.421875 C 1.617188 -2.421875 1.765625 -2.394531 1.890625 -2.34375 C 2.023438 -2.300781 2.144531 -2.226562 2.25 -2.125 C 2.457031 -1.914062 2.5625 -1.613281 2.5625 -1.21875 C 2.5625 -0.957031 2.503906 -0.722656 2.390625 -0.515625 C 2.285156 -0.335938 2.140625 -0.195312 1.953125 -0.09375 C 1.785156 0 1.601562 0.046875 1.40625 0.046875 C 1.21875 0.046875 1.054688 0.015625 0.921875 -0.046875 Z M 0.921875 -0.625 C 1.035156 -0.519531 1.1875 -0.46875 1.375 -0.46875 C 1.675781 -0.46875 1.867188 -0.613281 1.953125 -0.90625 C 1.984375 -1.007812 2 -1.113281 2 -1.21875 C 2 -1.332031 1.988281 -1.421875 1.96875 -1.484375 C 1.945312 -1.554688 1.914062 -1.617188 1.875 -1.671875 C 1.84375 -1.722656 1.804688 -1.765625 1.765625 -1.796875 C 1.722656 -1.828125 1.679688 -1.851562 1.640625 -1.875 C 1.566406 -1.90625 1.488281 -1.921875 1.40625 -1.921875 C 1.320312 -1.921875 1.234375 -1.898438 1.140625 -1.859375 C 1.054688 -1.828125 0.984375 -1.78125 0.921875 -1.71875 Z M 0.921875 -0.625 "/></g></g></g></g></g></g></svg>